<svg width="50" height="44" viewBox="0 0 50 44" fill="none" xmlns="http://www.w3.org/2000/svg">
<path fill-rule="evenodd" clip-rule="evenodd" d="M4.86733 6.117C4.72642 6.17847 4.51224 6.34656 4.39141 6.49048C3.74945 7.25514 3.92868 8.3014 4.78608 8.79413L5.12361 8.98807H25.5H45.8764L46.2139 8.79413C47.0715 8.30132 47.2505 7.25514 46.6083 6.49023C46.1651 5.9623 47.7192 5.99817 25.4817 6.0018C8.74523 6.00449 5.07799 6.02504 4.86733 6.117ZM4.827 20.6726C4.62114 20.7769 4.3683 20.9895 4.26503 21.1452C3.75197 21.9191 4.00749 22.9104 4.827 23.3253L5.20126 23.5148H25.5H45.7987L46.173 23.3253C47.2757 22.7671 47.2757 21.2309 46.173 20.6726L45.7987 20.4832H25.5H5.20126L4.827 20.6726ZM5.15244 35.0496C4.02295 35.3933 3.64416 36.6175 4.39166 37.5078C4.83482 38.0356 3.28377 37.9995 25.5 37.9995C47.7162 37.9995 46.1652 38.0356 46.6083 37.5078C47.2505 36.7429 47.0715 35.6967 46.2139 35.2039L45.8764 35.0099L25.626 34.9958C14.4883 34.9879 5.2752 35.0122 5.15244 35.0496Z" fill="white"/>
</svg>
