<svg width="36" height="36" viewBox="0 0 36 36" fill="none" xmlns="http://www.w3.org/2000/svg">
<rect x="0.5" y="0.5" width="35.0015" height="35" rx="7.5" transform="matrix(4.37114e-08 1 1 -4.37114e-08 2.18557e-08 -2.18557e-08)" stroke="#E6EDF0"/>
<path d="M13.3238 14.7982C14.1294 14.7982 14.7824 14.1451 14.7824 13.3395C14.7824 12.5339 14.1294 11.8809 13.3238 11.8809C12.5182 11.8809 11.8651 12.5339 11.8651 13.3395C11.8651 14.1451 12.5182 14.7982 13.3238 14.7982Z" fill="white"/>
<path d="M16.1575 15.9041V23.9968H18.6702V19.9948C18.6702 18.9388 18.8689 17.9161 20.1782 17.9161C21.4695 17.9161 21.4855 19.1234 21.4855 20.0614V23.9974H23.9995V19.5594C23.9995 17.3794 23.5302 15.7041 20.9822 15.7041C19.7589 15.7041 18.9389 16.3754 18.6035 17.0108H18.5695V15.9041H16.1575ZM12.0629 15.9041H14.5795V23.9968H12.0629V15.9041Z" fill="white"/>
</svg>
