<svg width="36" height="36" viewBox="0 0 36 36" fill="none" xmlns="http://www.w3.org/2000/svg">
<rect x="0.5" y="0.5" width="35.0015" height="35" rx="7.5" transform="matrix(4.37114e-08 1 1 -4.37114e-08 2.18557e-08 -2.18557e-08)" stroke="#E6EDF0"/>
<path d="M23.7792 12.4789L11.9592 17.0369C11.1525 17.3609 11.1572 17.8109 11.8112 18.0115L14.8459 18.9582L21.8672 14.5282C22.1992 14.3262 22.5025 14.4349 22.2532 14.6562L16.5645 19.7902H16.5632L16.5645 19.7909L16.3552 22.9189C16.6619 22.9189 16.7972 22.7782 16.9692 22.6122L18.4432 21.1789L21.5092 23.4435C22.0745 23.7549 22.4805 23.5949 22.6212 22.9202L24.6339 13.4349C24.8399 12.6089 24.3185 12.2349 23.7792 12.4789Z" fill="white"/>
</svg>
