<svg width="36" height="36" viewBox="0 0 36 36" fill="none" xmlns="http://www.w3.org/2000/svg">
<rect x="0.5" y="0.5" width="35.0015" height="35" rx="7.5" transform="matrix(4.37114e-08 1 1 -4.37114e-08 2.18557e-08 -2.18557e-08)" stroke="#E6EDF0"/>
<g clip-path="url(#clip0_7_1826)">
<path fill-rule="evenodd" clip-rule="evenodd" d="M14.9796 10.71C15.7616 10.674 16.0109 10.666 18.0029 10.666C19.9949 10.666 20.2443 10.6747 21.0256 10.71C21.8069 10.7453 22.3403 10.87 22.8069 11.0507C23.2956 11.2353 23.7389 11.524 24.1056 11.8973C24.4789 12.2633 24.7669 12.706 24.9509 13.1953C25.1323 13.662 25.2563 14.1953 25.2923 14.9753C25.3283 15.7587 25.3363 16.008 25.3363 17.9993C25.3363 19.9913 25.3276 20.2407 25.2923 21.0227C25.2569 21.8027 25.1323 22.336 24.9509 22.8027C24.7669 23.2921 24.4785 23.7355 24.1056 24.102C23.7389 24.4753 23.2956 24.7633 22.8069 24.9473C22.3403 25.1287 21.8069 25.2527 21.0269 25.2887C20.2443 25.3247 19.9949 25.3327 18.0029 25.3327C16.0109 25.3327 15.7616 25.324 14.9796 25.2887C14.1996 25.2533 13.6663 25.1287 13.1996 24.9473C12.7102 24.7633 12.2668 24.4749 11.9003 24.102C11.5272 23.7358 11.2385 23.2926 11.0543 22.8033C10.8736 22.3367 10.7496 21.8033 10.7136 21.0233C10.6776 20.24 10.6696 19.9907 10.6696 17.9993C10.6696 16.0073 10.6783 15.758 10.7136 14.9767C10.749 14.1953 10.8736 13.662 11.0543 13.1953C11.2388 12.7061 11.5277 12.2629 11.9009 11.8967C12.267 11.5237 12.7099 11.235 13.1989 11.0507C13.6656 10.87 14.1989 10.746 14.9789 10.71H14.9796ZM20.9663 12.03C20.1929 11.9947 19.9609 11.9873 18.0029 11.9873C16.0449 11.9873 15.8129 11.9947 15.0396 12.03C14.3243 12.0627 13.9363 12.182 13.6776 12.2827C13.3356 12.416 13.0909 12.574 12.8343 12.8307C12.591 13.0674 12.4037 13.3555 12.2863 13.674C12.1856 13.9327 12.0663 14.3207 12.0336 15.036C11.9983 15.8093 11.9909 16.0413 11.9909 17.9993C11.9909 19.9573 11.9983 20.1893 12.0336 20.9627C12.0663 21.678 12.1856 22.066 12.2863 22.3247C12.4036 22.6427 12.5909 22.9313 12.8343 23.168C13.0709 23.4113 13.3596 23.5987 13.6776 23.716C13.9363 23.8167 14.3243 23.936 15.0396 23.9687C15.8129 24.004 16.0443 24.0113 18.0029 24.0113C19.9616 24.0113 20.1929 24.004 20.9663 23.9687C21.6816 23.936 22.0696 23.8167 22.3283 23.716C22.6703 23.5827 22.9149 23.4247 23.1716 23.168C23.4149 22.9313 23.6023 22.6427 23.7196 22.3247C23.8203 22.066 23.9396 21.678 23.9723 20.9627C24.0076 20.1893 24.0149 19.9573 24.0149 17.9993C24.0149 16.0413 24.0076 15.8093 23.9723 15.036C23.9396 14.3207 23.8203 13.9327 23.7196 13.674C23.5863 13.332 23.4283 13.0873 23.1716 12.8307C22.9349 12.5874 22.6467 12.4002 22.3283 12.2827C22.0696 12.182 21.6816 12.0627 20.9663 12.03ZM17.0663 20.26C17.5894 20.4778 18.1719 20.5072 18.7142 20.3432C19.2566 20.1792 19.7252 19.832 20.04 19.3608C20.3548 18.8897 20.4963 18.3239 20.4403 17.7601C20.3843 17.1962 20.1343 16.6693 19.7329 16.2693C19.4771 16.0137 19.1678 15.8179 18.8272 15.6961C18.4866 15.5743 18.1232 15.5296 17.7633 15.5651C17.4033 15.6006 17.0557 15.7155 16.7455 15.9014C16.4353 16.0874 16.1701 16.3398 15.9692 16.6406C15.7682 16.9413 15.6364 17.2829 15.5833 17.6407C15.5302 17.9984 15.557 18.3635 15.662 18.7097C15.7669 19.0558 15.9473 19.3744 16.1901 19.6425C16.4329 19.9106 16.7322 20.1215 17.0663 20.26ZM15.3376 15.334C15.6876 14.984 16.1032 14.7064 16.5605 14.5169C17.0178 14.3275 17.508 14.23 18.0029 14.23C18.4979 14.23 18.9881 14.3275 19.4454 14.5169C19.9027 14.7064 20.3183 14.984 20.6683 15.334C21.0183 15.684 21.2959 16.0996 21.4854 16.5569C21.6748 17.0142 21.7723 17.5044 21.7723 17.9993C21.7723 18.4943 21.6748 18.9845 21.4854 19.4418C21.2959 19.8991 21.0183 20.3147 20.6683 20.6647C19.9614 21.3716 19.0026 21.7687 18.0029 21.7687C17.0033 21.7687 16.0445 21.3716 15.3376 20.6647C14.6307 19.9578 14.2336 18.999 14.2336 17.9993C14.2336 16.9997 14.6307 16.0409 15.3376 15.334ZM22.6083 14.7913C22.695 14.7095 22.7645 14.6111 22.8125 14.502C22.8605 14.3929 22.8862 14.2752 22.8879 14.156C22.8896 14.0367 22.8674 13.9184 22.8226 13.8079C22.7778 13.6974 22.7112 13.597 22.6269 13.5127C22.5426 13.4284 22.4422 13.3619 22.3317 13.317C22.2212 13.2722 22.1029 13.25 21.9837 13.2517C21.8644 13.2535 21.7468 13.2791 21.6376 13.3271C21.5285 13.3752 21.4301 13.4446 21.3483 13.5313C21.1892 13.7 21.102 13.9241 21.1054 14.156C21.1088 14.3878 21.2024 14.6093 21.3664 14.7732C21.5304 14.9372 21.7518 15.0308 21.9837 15.0342C22.2155 15.0376 22.4396 14.9505 22.6083 14.7913Z" fill="white"/>
</g>
<defs>
<clipPath id="clip0_7_1826">
<rect width="16" height="16" fill="white" transform="translate(10.0002 10)"/>
</clipPath>
</defs>
</svg>
